<svg width="144" height="61" viewBox="0 0 144 61" fill="none" xmlns="http://www.w3.org/2000/svg">
<path d="M59.6055 6.57702H52.3183V0.465332H59.6367V6.57702H59.6055ZM59.6055 42.9989L52.2872 42.9679V12.7197L59.6055 6.57702V42.9989ZM88.5674 24.819V6.57702H59.6367L66.8927 0.496356H88.5986L95.8546 6.57702V24.819L88.5052 30.9617H66.9238L59.6055 24.819H88.5674Z" fill="#083C61"/>
<path d="M107.845 0.40332H136.775L144 6.48398V12.5336H136.775V6.48398H107.845V18.6453H136.869L144 24.6639V36.9183L136.682 43.061H107.845L100.526 36.9183V30.8066H107.845V36.8873H136.775V24.726H107.72L100.495 18.6453V6.54603L107.845 0.40332Z" fill="#083C61"/>
<path d="M43.474 6.14271L36.1557 0H7.31834L0 6.14271V12.2544H7.31834V6.14271H36.2491V18.304H7.53633V18.6453V24.3847V24.726H36.2491V36.8873H7.31834V30.8066H0V36.8873L7.31834 43.03H36.1557L43.474 36.8873V24.6329L39.737 21.5305L43.474 18.3971V6.14271Z" fill="#083C61"/>
<path d="M0.186523 54.2295H2.52216V55.1602H0.186523V54.2295ZM3.08272 54.2295H7.06888V55.1602H4.17268V59.9999H3.08272V54.2295Z" fill="#083C61"/>
<path d="M8.0343 54.2295H9.12427V56.6493H13.235V57.5801H9.12427V59.9999H8.0343V54.2295ZM13.7955 54.2295H14.8855V59.9999H13.7955V54.2295Z" fill="#083C61"/>
<path d="M16.0381 54.2295H20.7094V55.1602H18.9343V59.1002H20.7094V60.0309H16.0381V59.1002H17.8132V55.1602H16.0381V54.2295Z" fill="#083C61"/>
<path d="M21.8613 54.2295H26.7505C27.3111 54.2295 27.7782 54.3846 28.1519 54.7259C28.5256 55.0671 28.7436 55.4394 28.7436 55.9048C28.7436 56.1219 28.6813 56.3391 28.5879 56.5563C28.4945 56.7734 28.3388 56.9286 28.1519 57.0837C27.9651 57.2388 27.7782 57.3629 27.5291 57.4249C27.28 57.487 27.0308 57.549 26.7505 57.549L27.8094 59.9689H26.6571L25.5983 57.549H23.5429V56.6183H26.7817C27.0308 56.6183 27.2488 56.5563 27.4045 56.4012C27.5914 56.246 27.6537 56.0909 27.6537 55.8738C27.6537 55.6566 27.5602 55.5015 27.4045 55.3463C27.2177 55.1912 27.0308 55.1292 26.7817 55.1292H22.9824V59.9689H21.8924V54.2295H21.8613Z" fill="#083C61"/>
<path d="M29.8643 54.2295H30.9542V59.0692H34.7224C34.9715 59.0692 35.1895 59.0072 35.3452 58.852C35.5321 58.6969 35.5944 58.5418 35.5944 58.3246V55.9048C35.5944 55.6876 35.5009 55.5325 35.3452 55.3774C35.1584 55.2223 34.9715 55.1602 34.7224 55.1602H31.4836V54.2295H34.7224C35.0961 54.2295 35.4075 54.2915 35.7189 54.4467C36.0303 54.6018 36.2795 54.7879 36.4352 55.0671C36.622 55.3153 36.7155 55.5945 36.7155 55.9048V58.3246C36.7155 58.79 36.5286 59.1933 36.1238 59.5035C35.7501 59.8448 35.2518 59.9999 34.7224 59.9999H29.8643V54.2295Z" fill="#083C61"/>
<path d="M42.1346 54.2295H47.0239C47.3976 54.2295 47.709 54.2915 48.0205 54.4467C48.3319 54.6018 48.581 54.7879 48.7367 55.0671C48.9236 55.3153 49.017 55.5945 49.017 55.9048C49.017 56.3701 48.8301 56.7734 48.4253 57.0837C48.0516 57.4249 47.5533 57.5801 47.0239 57.5801H43.2557V59.9999H42.1658V55.6256H43.2557V56.6804H47.0239C47.2731 56.6804 47.491 56.6183 47.6468 56.4632C47.8336 56.3081 47.8959 56.153 47.8959 55.9358C47.8959 55.7186 47.8025 55.5635 47.6468 55.4084C47.4599 55.2533 47.2731 55.1912 47.0239 55.1912H42.1346V54.2295Z" fill="#083C61"/>
<path d="M51.1974 54.2295H55.8687C56.1801 54.2295 56.4292 54.3226 56.6472 54.5087C56.8652 54.6948 56.9586 54.912 56.9586 55.1602V59.9999H55.8687V55.1602H51.1974V59.9999H50.1074V55.1602C50.1074 54.912 50.2008 54.6948 50.4188 54.5087C50.6368 54.3226 50.886 54.2295 51.1974 54.2295ZM51.7579 57.1147H55.3393V58.0454H51.7579V57.1147Z" fill="#083C61"/>
<path d="M58.4218 54.2295H63.3111C63.8716 54.2295 64.3388 54.3846 64.7125 54.7259C65.0862 55.0671 65.3042 55.4394 65.3042 55.9048C65.3042 56.1219 65.2419 56.3391 65.1485 56.5563C65.055 56.7734 64.8993 56.9286 64.7125 57.0837C64.5256 57.2388 64.3388 57.3629 64.0896 57.4249C63.8405 57.487 63.5914 57.549 63.3111 57.549L64.3699 59.9689H63.2177L62.1588 57.549H60.1035V56.6183H63.3422C63.5914 56.6183 63.8094 56.5563 63.9651 56.4012C64.1519 56.246 64.2142 56.0909 64.2142 55.8738C64.2142 55.6566 64.1208 55.5015 63.9651 55.3463C63.7782 55.1912 63.5914 55.1292 63.3422 55.1292H59.5741V59.9689H58.4841V54.2295H58.4218Z" fill="#083C61"/>
<path d="M65.8027 54.2295H72.6851V55.1602H65.8027V54.2295ZM68.6989 55.6256H69.7889V59.9999H68.6989V55.6256Z" fill="#083C61"/>
<path d="M72.9962 54.2295H74.1485L75.2384 56.7734H77.5741L78.664 54.2295H79.8163L78.5083 57.2388C78.5083 57.2388 78.5083 57.2388 78.5083 57.2698C78.5083 57.2698 78.4772 57.3008 78.4772 57.3319C78.446 57.3629 78.446 57.3939 78.4149 57.4249C78.3838 57.456 78.3526 57.487 78.3215 57.518C78.2903 57.549 78.2281 57.5801 78.1969 57.6111C78.1346 57.6421 78.1035 57.6731 78.0101 57.6731C77.9166 57.6731 77.8855 57.7042 77.7921 57.7042H75.0516C74.8959 57.7042 74.7402 57.6731 74.6156 57.5801C74.491 57.518 74.3976 57.4249 74.3665 57.3629L74.3042 57.2388L72.9962 54.2295ZM75.8924 58.1695H76.9824V60.0309H75.8924V58.1695Z" fill="#083C61"/>
<path d="M84.5184 55.6256H85.6707C85.6396 55.7186 85.6084 55.8117 85.6084 55.9048C85.6084 56.1219 85.7018 56.2771 85.8576 56.4322C86.0444 56.5873 86.2313 56.6493 86.4804 56.6493H89.3766C89.9371 56.6493 90.4043 56.8045 90.778 57.1457C91.1517 57.487 91.3697 57.8593 91.3697 58.3246C91.3697 58.79 91.1828 59.1933 90.778 59.5035C90.4043 59.8448 89.906 59.9999 89.3766 59.9999H84.4873V59.0692H89.3766C89.6257 59.0692 89.8437 59.0072 89.9994 58.852C90.1863 58.6969 90.2486 58.5418 90.2486 58.3246C90.2486 58.2005 90.2174 58.0454 90.124 57.9523C90.0306 57.8283 89.9371 57.7352 89.8126 57.6731C89.688 57.6111 89.5323 57.5801 89.3766 57.5801H86.4804C85.9198 57.5801 85.4527 57.4249 85.079 57.0837C84.7053 56.7424 84.4873 56.3701 84.4873 55.9048C84.4873 55.8117 84.4873 55.7186 84.5184 55.6256ZM86.4804 54.2295H91.3697V55.1602H84.7053C84.861 54.881 85.1101 54.6638 85.4216 54.4777C85.733 54.3226 86.0755 54.2295 86.4804 54.2295Z" fill="#083C61"/>
<path d="M94.4841 54.2295H99.3734V55.1602H94.4841C94.235 55.1602 94.017 55.2223 93.8613 55.3774C93.6744 55.5325 93.6121 55.6876 93.6121 55.9048V58.3246C93.6121 58.5418 93.7056 58.6969 93.8613 58.852C94.017 59.0072 94.235 59.0692 94.4841 59.0692H99.3734V59.9999H94.4841C93.9236 59.9999 93.4564 59.8448 93.0827 59.5035C92.709 59.1623 92.491 58.79 92.491 58.3246V55.9048C92.491 55.4394 92.6779 55.0361 93.0827 54.7259C93.4564 54.3846 93.9547 54.2295 94.4841 54.2295ZM94.1415 56.6493H97.0377V57.5801H94.1415V56.6493Z" fill="#083C61"/>
<path d="M100.526 54.2295H105.415C105.975 54.2295 106.443 54.3846 106.816 54.7259C107.19 55.0671 107.408 55.4394 107.408 55.9048C107.408 56.1219 107.346 56.3391 107.252 56.5563C107.159 56.7734 107.003 56.9286 106.816 57.0837C106.629 57.2388 106.443 57.3629 106.193 57.4249C105.944 57.487 105.695 57.549 105.415 57.549L106.474 59.9689H105.259L104.2 57.549H102.145V56.6183H105.384C105.633 56.6183 105.851 56.5563 106.007 56.4012C106.193 56.246 106.256 56.0909 106.256 55.8738C106.256 55.6566 106.162 55.5015 106.007 55.3463C105.82 55.1912 105.633 55.1292 105.384 55.1292H101.616V59.9689H100.526V54.2295Z" fill="#083C61"/>
<path d="M107.937 54.2295H109.09L110.148 56.6493L111.207 59.0692L111.612 59.9999H110.989C110.896 59.9999 110.802 59.9689 110.709 59.9379C110.616 59.9068 110.553 59.8758 110.491 59.8138C110.429 59.7827 110.398 59.7207 110.335 59.6897C110.304 59.6587 110.273 59.5966 110.242 59.5656L110.211 59.5035L107.937 54.2295ZM113.636 54.2295H114.789L112.484 59.5346C112.484 59.5346 112.453 59.5656 112.453 59.5966C112.422 59.6276 112.391 59.6897 112.328 59.7517C112.266 59.8138 112.204 59.8758 112.11 59.9068L111.643 58.79L113.636 54.2295Z" fill="#083C61"/>
<path d="M115.35 54.2295H120.021V55.1602H118.246V59.1002H120.021V60.0309H115.35V59.1002H117.125V55.1602H115.35V54.2295Z" fill="#083C61"/>
<path d="M122.978 54.2295H125.875C126.435 54.2295 126.902 54.3846 127.276 54.7259C127.65 55.0671 127.868 55.4394 127.868 55.9048H126.778C126.778 55.6876 126.684 55.5325 126.529 55.3774C126.342 55.2223 126.155 55.1602 125.906 55.1602H123.01C122.76 55.1602 122.542 55.2223 122.387 55.3774C122.2 55.5325 122.138 55.6876 122.138 55.9048V58.3246C122.138 58.5418 122.231 58.6969 122.387 58.852C122.542 59.0072 122.76 59.0692 123.01 59.0692H125.906C126.155 59.0692 126.373 59.0072 126.529 58.852C126.684 58.6969 126.778 58.5418 126.778 58.3246H127.868C127.868 58.79 127.681 59.1933 127.276 59.5035C126.902 59.8448 126.404 59.9999 125.875 59.9999H122.978C122.418 59.9999 121.951 59.8448 121.577 59.5035C121.203 59.1623 120.985 58.79 120.985 58.3246V55.9048C120.985 55.4394 121.172 55.0361 121.577 54.7259C121.982 54.3846 122.449 54.2295 122.978 54.2295Z" fill="#083C61"/>
<path d="M130.982 54.2295H135.872V55.1602H130.982C130.733 55.1602 130.515 55.2223 130.36 55.3774C130.173 55.5325 130.11 55.6876 130.11 55.9048V58.3246C130.11 58.5418 130.204 58.6969 130.36 58.852C130.515 59.0072 130.733 59.0692 130.982 59.0692H135.872V59.9999H130.982C130.422 59.9999 129.955 59.8448 129.581 59.5035C129.207 59.1623 128.989 58.79 128.989 58.3246V55.9048C128.989 55.4394 129.176 55.0361 129.581 54.7259C129.955 54.3846 130.422 54.2295 130.982 54.2295ZM130.64 56.6493H133.536V57.5801H130.64V56.6493Z" fill="#083C61"/>
<path d="M142.412 58.5728H143.533C143.471 58.9761 143.253 59.3174 142.879 59.5966C142.505 59.8758 142.069 59.9999 141.571 59.9999H136.682V59.0692H141.571C141.758 59.0692 141.945 59.0072 142.1 58.9141C142.225 58.852 142.349 58.7279 142.412 58.5728ZM138.675 54.2295H143.564V55.1602H138.675C138.488 55.1602 138.301 55.2223 138.145 55.3153C137.99 55.4084 137.865 55.5325 137.834 55.6876H136.713C136.775 55.2843 136.993 54.943 137.367 54.6638C137.74 54.3536 138.176 54.2295 138.675 54.2295ZM136.682 56.1219H137.803C137.865 56.2771 137.958 56.4012 138.114 56.4942C138.27 56.5873 138.457 56.6493 138.644 56.6493H141.54C142.038 56.6493 142.474 56.7734 142.848 57.0527C143.221 57.3319 143.439 57.6731 143.502 58.0764H142.381C142.318 57.9213 142.225 57.7972 142.069 57.7042C141.913 57.6111 141.727 57.549 141.54 57.549H138.644C138.145 57.549 137.709 57.4249 137.336 57.1457C136.993 56.8975 136.775 56.5563 136.682 56.1219Z" fill="#083C61"/>
</svg>
