<svg width="274" height="114" viewBox="0 0 274 114" fill="none" xmlns="http://www.w3.org/2000/svg">
<g clip-path="url(#clip0_2977_1834)">
<path d="M113.416 12.497H99.5505V0.884766H113.476V12.497H113.416ZM113.416 81.6986L99.4912 81.6397V24.1681L113.416 12.497V81.6986ZM168.525 47.1567V12.497H113.476L127.282 0.943711H168.584L182.39 12.497V47.1567L168.406 58.8279H127.342L113.416 47.1567H168.525Z" fill="white"/>
<path d="M205.204 0.765625H260.253L274 12.3189V23.8132H260.253V12.3189H205.204V35.4254H260.431L274 46.8608V70.1441L260.075 81.8153H205.204L191.279 70.1441V58.5319H205.204V70.0852H260.253V46.9787H204.967L191.22 35.4254V12.4368L205.204 0.765625Z" fill="white"/>
<path d="M82.7215 11.6711L68.7963 0H13.9252L0 11.6711V23.2833H13.9252V11.6711H68.974V34.7777H14.34V35.4261V46.3309V46.9793H68.974V70.0858H13.9252V58.5326H0V70.0858L13.9252 81.757H68.7963L82.7215 70.0858V46.8025L75.6107 40.908L82.7215 34.9545V11.6711Z" fill="white"/>
<path d="M0.35553 103.036H4.79973V104.804H0.35553V103.036ZM5.86634 103.036H13.4511V104.804H7.9403V114H5.86634V103.036Z" fill="white"/>
<path d="M15.2881 103.036H17.362V107.634H25.1838V109.402H17.362V114H15.2881V103.036ZM26.2505 103.036H28.3244V114H26.2505V103.036Z" fill="white"/>
<path d="M30.5168 103.036H39.4053V104.804H36.0277V112.291H39.4053V114.059H30.5168V112.291H33.8944V104.804H30.5168V103.036Z" fill="white"/>
<path d="M41.5978 103.036H50.901C51.9676 103.036 52.8564 103.331 53.5675 103.979C54.2786 104.628 54.6934 105.335 54.6934 106.219C54.6934 106.632 54.5749 107.044 54.3971 107.457C54.2193 107.87 53.923 108.164 53.5675 108.459C53.212 108.754 52.8564 108.99 52.3824 109.107C51.9083 109.225 51.4343 109.343 50.901 109.343L52.9157 113.941H50.7232L48.7085 109.343H44.7976V107.575H50.9602C51.4343 107.575 51.8491 107.457 52.1454 107.162C52.5009 106.868 52.6194 106.573 52.6194 106.16C52.6194 105.748 52.4416 105.453 52.1454 105.158C51.7898 104.863 51.4343 104.746 50.9602 104.746H43.731V113.941H41.657V103.036H41.5978Z" fill="white"/>
<path d="M56.8262 103.036H58.9002V112.232H66.0702C66.5442 112.232 66.959 112.114 67.2553 111.819C67.6108 111.524 67.7293 111.23 67.7293 110.817V106.219C67.7293 105.807 67.5516 105.512 67.2553 105.217C66.8998 104.922 66.5442 104.804 66.0702 104.804H59.9075V103.036H66.0702C66.7812 103.036 67.3738 103.154 67.9664 103.449C68.5589 103.743 69.033 104.097 69.3293 104.628C69.6848 105.099 69.8626 105.63 69.8626 106.219V110.817C69.8626 111.701 69.507 112.467 68.7367 113.057C68.0256 113.705 67.0775 114 66.0702 114H56.8262V103.036Z" fill="white"/>
<path d="M80.1739 103.036H89.4771C90.1882 103.036 90.7807 103.154 91.3733 103.449C91.9658 103.743 92.4399 104.097 92.7362 104.628C93.0917 105.099 93.2695 105.63 93.2695 106.219C93.2695 107.103 92.9139 107.87 92.1436 108.459C91.4325 109.107 90.4844 109.402 89.4771 109.402H82.3071V114H80.2331V105.689H82.3071V107.693H89.4771C89.9511 107.693 90.3659 107.575 90.6622 107.28C91.0177 106.985 91.1363 106.691 91.1363 106.278C91.1363 105.866 90.9585 105.571 90.6622 105.276C90.3067 104.981 89.9511 104.863 89.4771 104.863H80.1739V103.036Z" fill="white"/>
<path d="M97.4169 103.036H106.305C106.898 103.036 107.372 103.213 107.787 103.567C108.202 103.92 108.379 104.333 108.379 104.804V114H106.305V104.804H97.4169V114H95.343V104.804C95.343 104.333 95.5207 103.92 95.9355 103.567C96.3503 103.213 96.8244 103.036 97.4169 103.036ZM98.4835 108.518H105.298V110.286H98.4835V108.518Z" fill="white"/>
<path d="M111.164 103.036H120.468C121.534 103.036 122.423 103.331 123.134 103.979C123.845 104.628 124.26 105.335 124.26 106.219C124.26 106.632 124.141 107.044 123.964 107.457C123.786 107.87 123.49 108.164 123.134 108.459C122.779 108.754 122.423 108.99 121.949 109.107C121.475 109.225 121.001 109.343 120.468 109.343L122.482 113.941H120.29L118.275 109.343H114.364V107.575H120.527C121.001 107.575 121.416 107.457 121.712 107.162C122.067 106.868 122.186 106.573 122.186 106.16C122.186 105.748 122.008 105.453 121.712 105.158C121.356 104.863 121.001 104.746 120.527 104.746H113.357V113.941H111.283V103.036H111.164Z" fill="white"/>
<path d="M125.208 103.036H138.304V104.804H125.208V103.036ZM130.719 105.689H132.793V114H130.719V105.689Z" fill="white"/>
<path d="M138.897 103.036H141.089L143.163 107.87H147.607L149.681 103.036H151.874L149.385 108.754C149.385 108.754 149.385 108.754 149.385 108.813C149.385 108.813 149.326 108.872 149.326 108.931C149.266 108.99 149.266 109.049 149.207 109.107C149.148 109.166 149.089 109.225 149.029 109.284C148.97 109.343 148.852 109.402 148.792 109.461C148.674 109.52 148.615 109.579 148.437 109.579C148.259 109.579 148.2 109.638 148.022 109.638H142.807C142.511 109.638 142.215 109.579 141.978 109.402C141.741 109.284 141.563 109.107 141.504 108.99L141.385 108.754L138.897 103.036ZM144.407 110.522H146.481V114.059H144.407V110.522Z" fill="white"/>
<path d="M160.821 105.689H163.013C162.954 105.866 162.895 106.042 162.895 106.219C162.895 106.632 163.073 106.927 163.369 107.221C163.724 107.516 164.08 107.634 164.554 107.634H170.065C171.131 107.634 172.02 107.929 172.731 108.577C173.442 109.225 173.857 109.933 173.857 110.817C173.857 111.701 173.502 112.467 172.731 113.057C172.02 113.705 171.072 114 170.065 114H160.762V112.232H170.065C170.539 112.232 170.954 112.114 171.25 111.819C171.606 111.524 171.724 111.23 171.724 110.817C171.724 110.581 171.665 110.286 171.487 110.11C171.309 109.874 171.131 109.697 170.894 109.579C170.657 109.461 170.361 109.402 170.065 109.402H164.554C163.487 109.402 162.599 109.107 161.888 108.459C161.176 107.811 160.762 107.103 160.762 106.219C160.762 106.042 160.762 105.866 160.821 105.689ZM164.554 103.036H173.857V104.804H161.176C161.473 104.274 161.947 103.861 162.539 103.508C163.132 103.213 163.784 103.036 164.554 103.036Z" fill="white"/>
<path d="M179.783 103.036H189.086V104.804H179.783C179.309 104.804 178.894 104.922 178.598 105.217C178.242 105.512 178.124 105.807 178.124 106.219V110.817C178.124 111.23 178.301 111.524 178.598 111.819C178.894 112.114 179.309 112.232 179.783 112.232H189.086V114H179.783C178.716 114 177.827 113.705 177.116 113.057C176.405 112.408 175.99 111.701 175.99 110.817V106.219C175.99 105.335 176.346 104.569 177.116 103.979C177.827 103.331 178.776 103.036 179.783 103.036ZM179.131 107.634H184.642V109.402H179.131V107.634Z" fill="white"/>
<path d="M191.279 103.036H200.582C201.648 103.036 202.537 103.331 203.248 103.979C203.959 104.628 204.374 105.335 204.374 106.219C204.374 106.632 204.256 107.044 204.078 107.457C203.9 107.87 203.604 108.164 203.248 108.459C202.893 108.754 202.537 108.99 202.063 109.107C201.589 109.225 201.115 109.343 200.582 109.343L202.596 113.941H200.285L198.271 109.343H194.36V107.575H200.523C200.997 107.575 201.411 107.457 201.708 107.162C202.063 106.868 202.182 106.573 202.182 106.16C202.182 105.748 202.004 105.453 201.708 105.158C201.352 104.863 200.997 104.746 200.523 104.746H193.353V113.941H191.279V103.036Z" fill="white"/>
<path d="M205.382 103.036H207.574L209.589 107.634L211.604 112.232L212.374 114H211.189C211.011 114 210.833 113.941 210.656 113.882C210.478 113.823 210.359 113.764 210.241 113.646C210.122 113.587 210.063 113.469 209.945 113.41C209.885 113.352 209.826 113.234 209.767 113.175L209.708 113.057L205.382 103.036ZM216.226 103.036H218.418L214.033 113.116C214.033 113.116 213.974 113.175 213.974 113.234C213.915 113.293 213.856 113.41 213.737 113.528C213.618 113.646 213.5 113.764 213.322 113.823L212.433 111.701L216.226 103.036Z" fill="white"/>
<path d="M219.484 103.036H228.373V104.804H224.995V112.291H228.373V114.059H219.484V112.291H222.862V104.804H219.484V103.036Z" fill="white"/>
<path d="M234.002 103.036H239.513C240.58 103.036 241.469 103.331 242.18 103.979C242.891 104.628 243.306 105.335 243.306 106.219H241.232C241.232 105.807 241.054 105.512 240.758 105.217C240.402 104.922 240.047 104.804 239.572 104.804H234.062C233.588 104.804 233.173 104.922 232.877 105.217C232.521 105.512 232.403 105.807 232.403 106.219V110.817C232.403 111.23 232.58 111.524 232.877 111.819C233.173 112.114 233.588 112.232 234.062 112.232H239.572C240.047 112.232 240.461 112.114 240.758 111.819C241.054 111.524 241.232 111.23 241.232 110.817H243.306C243.306 111.701 242.95 112.467 242.18 113.057C241.469 113.705 240.521 114 239.513 114H234.002C232.936 114 232.047 113.705 231.336 113.057C230.625 112.408 230.21 111.701 230.21 110.817V106.219C230.21 105.335 230.566 104.569 231.336 103.979C232.106 103.331 232.995 103.036 234.002 103.036Z" fill="white"/>
<path d="M249.231 103.036H258.534V104.804H249.231C248.757 104.804 248.342 104.922 248.046 105.217C247.69 105.512 247.572 105.807 247.572 106.219V110.817C247.572 111.23 247.75 111.524 248.046 111.819C248.342 112.114 248.757 112.232 249.231 112.232H258.534V114H249.231C248.164 114 247.276 113.705 246.564 113.057C245.853 112.408 245.439 111.701 245.439 110.817V106.219C245.439 105.335 245.794 104.569 246.564 103.979C247.276 103.331 248.164 103.036 249.231 103.036ZM248.579 107.634H254.09V109.402H248.579V107.634Z" fill="white"/>
<path d="M270.978 111.288H273.112C272.993 112.055 272.578 112.703 271.867 113.234C271.156 113.764 270.327 114 269.378 114H260.075V112.232H269.378C269.734 112.232 270.09 112.114 270.386 111.937C270.623 111.819 270.86 111.583 270.978 111.288ZM263.868 103.036H273.171V104.804H263.868C263.512 104.804 263.157 104.922 262.86 105.099C262.564 105.276 262.327 105.512 262.268 105.807H260.135C260.253 105.04 260.668 104.392 261.379 103.861C262.09 103.272 262.92 103.036 263.868 103.036ZM260.075 106.632H262.208C262.327 106.927 262.505 107.162 262.801 107.339C263.097 107.516 263.453 107.634 263.808 107.634H269.319C270.267 107.634 271.097 107.87 271.808 108.4C272.519 108.931 272.934 109.579 273.052 110.345H270.919C270.801 110.051 270.623 109.815 270.327 109.638C270.03 109.461 269.675 109.343 269.319 109.343H263.808C262.86 109.343 262.031 109.107 261.32 108.577C260.668 108.105 260.253 107.457 260.075 106.632Z" fill="white"/>
</g>
<defs>
<clipPath id="clip0_2977_1834">
<rect width="274" height="114" fill="white"/>
</clipPath>
</defs>
</svg>
